<svg width="22" height="22" viewBox="0 0 22 22" fill="none" xmlns="http://www.w3.org/2000/svg">
<g clip-path="url(#clip0_14_34)">
<path d="M15.7275 5.67169C14.1515 4.9304 12.5762 4.18762 11.0017 3.44336L1.115 8.10336L2.80666 8.92003L2.66666 8.94253V17.6667H3.5V9.64503L4.1 9.54169L4.33333 9.65419V14.0609C4.33333 14.8225 8.67166 17.005 9.54083 17.435C9.99271 17.6568 10.49 17.7703 10.9934 17.7666C11.4967 17.7628 11.9923 17.6419 12.4408 17.4134C17.6667 14.7384 17.6667 14.2459 17.6667 14.0609V9.65419L20.8783 8.10669C20.8783 8.10669 17.7117 6.60586 15.7275 5.67169ZM16.8333 13.92C15.3033 14.9384 13.7095 15.8575 12.0617 16.6717C11.729 16.8415 11.3613 16.9314 10.9878 16.9343C10.6143 16.9372 10.2453 16.853 9.91 16.6884C8.25623 15.9016 6.6698 14.9804 5.16666 13.9342V10.055L11 12.8659L16.8333 10.055V13.92ZM11 11.9425L5.51333 9.29836L10.9042 8.36919L10.7625 7.54669L4.22083 8.67503L3.05166 8.11169L10.9992 4.36586C11.6867 4.69336 18.1017 7.71086 18.9508 8.11086L11 11.9425Z" fill="#EE9D00"/>
</g>
<defs>
<clipPath id="clip0_14_34">
<rect width="20" height="20" fill="white" transform="translate(1 1)"/>
</clipPath>
</defs>
</svg>
