<svg width="22" height="22" viewBox="0 0 22 22" fill="none" xmlns="http://www.w3.org/2000/svg">
<path d="M18.5 5.24563H13.7775V4.2825C13.7767 3.89267 13.6214 3.51906 13.3456 3.24352C13.0698 2.96799 12.6961 2.813 12.3062 2.8125H9.77062C9.38058 2.813 9.00665 2.96816 8.73084 3.24397C8.45504 3.51977 8.29987 3.8937 8.29937 4.28375V5.24563H3.5C3.10995 5.24612 2.73602 5.40129 2.46021 5.67709C2.18441 5.9529 2.02924 6.32683 2.02875 6.71688V17.7169C2.02941 18.1068 2.18465 18.4806 2.46044 18.7563C2.73622 19.0319 3.11006 19.187 3.5 19.1875H18.5C18.89 19.187 19.264 19.0318 19.5398 18.756C19.8156 18.4802 19.9708 18.1063 19.9712 17.7163V6.71688C19.9708 6.32683 19.8156 5.9529 19.5398 5.67709C19.264 5.40129 18.89 5.24612 18.5 5.24563ZM5.01562 18.7456H3.5C3.22737 18.7453 2.96599 18.6369 2.77315 18.4442C2.58031 18.2514 2.47174 17.9901 2.47125 17.7175V6.71688C2.47141 6.44403 2.57983 6.18239 2.77271 5.9894C2.96558 5.79641 3.22715 5.68783 3.5 5.6875H5.01562V18.7456ZM8.7425 4.2825C8.74283 4.00993 8.85126 3.74861 9.04399 3.55587C9.23673 3.36313 9.49805 3.25471 9.77062 3.25438H12.3062C12.5788 3.25471 12.8401 3.36313 13.0329 3.55587C13.2256 3.74861 13.334 4.00993 13.3344 4.2825V5.24563H8.7425V4.2825ZM16.5412 18.7456H5.45875V5.6875H16.5412V11.35L15.2537 10.7419C15.2006 10.7168 15.1397 10.7139 15.0844 10.7337C15.0291 10.7535 14.9839 10.7944 14.9587 10.8475L13.3562 14.2406C13.3437 14.2669 13.3365 14.2954 13.335 14.3244C13.3335 14.3535 13.3377 14.3826 13.3475 14.41C13.3677 14.4649 13.4085 14.5097 13.4612 14.535L16.1606 15.8125C16.2138 15.8375 16.2747 15.8405 16.33 15.8207C16.3853 15.8009 16.4304 15.7599 16.4556 15.7069L16.5412 15.525V18.7456ZM16.1494 15.3125L13.8512 14.2269L15.2644 11.2344L17.5625 12.3225L16.1494 15.3125ZM19.5287 17.715C19.5289 17.9881 19.4206 18.25 19.2277 18.4433C19.0348 18.6365 18.7731 18.7453 18.5 18.7456H16.9844V14.6475C16.983 14.6324 16.9801 14.6176 16.9756 14.6031L18.0581 12.3125C18.0831 12.2594 18.0862 12.1986 18.0669 12.1431C18.0462 12.0883 18.0053 12.0436 17.9525 12.0181L16.9844 11.5625V5.6875H18.5C18.7726 5.68783 19.034 5.79624 19.2268 5.98896C19.4197 6.18168 19.5283 6.44299 19.5287 6.71563V17.715Z" fill="#FF0000"/>
<path d="M14.7694 9.46058C14.7694 8.6837 13.8513 8.07495 12.6794 8.07495C11.5075 8.07495 10.5881 8.6837 10.5881 9.46058C10.5881 10.2375 11.5069 10.845 12.6794 10.845C13.8519 10.845 14.7694 10.2368 14.7694 9.46058ZM12.6794 10.4018C11.7856 10.4018 11.0313 9.9712 11.0313 9.46058C11.0313 8.94995 11.7856 8.51808 12.6794 8.51808C13.5731 8.51808 14.3263 8.94995 14.3263 9.46058C14.3263 9.9712 13.5719 10.4018 12.6794 10.4018Z" fill="#FF0000"/>
<path d="M10.2869 11.805L7.66188 10.5638C7.60881 10.5389 7.54807 10.5361 7.49292 10.5559C7.43777 10.5757 7.39268 10.6165 7.3675 10.6694L6.50313 12.4938C6.49049 12.52 6.4832 12.5485 6.48168 12.5775C6.48016 12.6066 6.48444 12.6357 6.49427 12.6631C6.5041 12.6905 6.51929 12.7156 6.53894 12.7371C6.5586 12.7586 6.58233 12.7759 6.60875 12.7881L9.23688 14.0294C9.26634 14.0435 9.2986 14.0507 9.33125 14.0506C9.35665 14.0509 9.38188 14.0465 9.40563 14.0375C9.43297 14.0278 9.4581 14.0127 9.47956 13.9932C9.50102 13.9737 9.51838 13.9501 9.53063 13.9238L10.3919 12.0994C10.4044 12.0732 10.4116 12.0447 10.413 12.0157C10.4145 11.9867 10.4102 11.9577 10.4005 11.9304C10.3907 11.903 10.3757 11.8779 10.3562 11.8564C10.3367 11.8349 10.3131 11.8174 10.2869 11.805ZM9.22438 13.5344L7.00001 12.4825L7.6725 11.0588L9.89938 12.1106L9.22438 13.5344Z" fill="#FF0000"/>
</svg>
