<svg width="22" height="22" viewBox="0 0 22 22" fill="none" xmlns="http://www.w3.org/2000/svg">
<path d="M4.5 16.0607C4.5 16.0607 4.41921 16.6903 4.5 16.9893C4.55612 17.1968 4.61 17.5464 4.825 17.5464H6.03212C6.24712 17.5464 6.301 17.1968 6.35712 16.9893C6.43792 16.6904 6.35712 16.0607 6.35712 16.0607" stroke="#03539D" stroke-linecap="round" stroke-linejoin="round"/>
<path d="M17.2679 10.025H4.73212C3.70646 10.025 2.875 10.8565 2.875 11.8821V14.2036C2.875 15.2293 3.70646 16.0607 4.73212 16.0607H17.2679C18.2935 16.0607 19.125 15.2293 19.125 14.2036V11.8821C19.125 10.8565 18.2935 10.025 17.2679 10.025Z" stroke="#03539D" stroke-linecap="round" stroke-linejoin="round"/>
<path d="M15.6429 16.0607C15.6429 16.0607 15.5621 16.6903 15.6429 16.9893C15.699 17.1968 15.7529 17.5464 15.9679 17.5464H17.175C17.39 17.5464 17.4439 17.1968 17.5 16.9893C17.5808 16.6904 17.5 16.0607 17.5 16.0607" stroke="#03539D" stroke-linecap="round" stroke-linejoin="round"/>
<path d="M5.42858 14.2036C5.94143 14.2036 6.35717 13.7879 6.35717 13.275C6.35717 12.7622 5.94143 12.3464 5.42858 12.3464C4.91574 12.3464 4.5 12.7622 4.5 13.275C4.5 13.7879 4.91574 14.2036 5.42858 14.2036Z" stroke="#03539D" stroke-linecap="round" stroke-linejoin="round"/>
<path d="M4.73212 10.0249L5.8 5.84637C5.9825 5.13228 6.78058 4.45349 7.51787 4.45349H14.4822C15.2195 4.45349 16.0175 5.13228 16.2 5.84637L17.2679 10.0249" stroke="#03539D" stroke-linecap="round" stroke-linejoin="round"/>
<path d="M16.5714 14.2036C17.0843 14.2036 17.5 13.7879 17.5 13.275C17.5 12.7622 17.0843 12.3464 16.5714 12.3464C16.0586 12.3464 15.6428 12.7622 15.6428 13.275C15.6428 13.7879 16.0586 14.2036 16.5714 14.2036Z" stroke="#03539D" stroke-linecap="round" stroke-linejoin="round"/>
</svg>
